<svg xmlns="http://www.w3.org/2000/svg" viewBox="0 0 386 74.91"><defs><style>.cls-1{fill:#5e4585;}.cls-2{fill:#a3bd31;}.cls-3{fill:#745d96;}</style></defs><title>adelantosYa</title><g id="Layer_2" data-name="Layer 2"><path class="cls-1" d="M66.12,62.58,42.83,4.8a1,1,0,0,0-.92-.61h0L25,4.27a1,1,0,0,0-.81.43,1,1,0,0,0-.1.9L47.4,63.46a1,1,0,0,0,.92.61h0l16.89-.17a1,1,0,0,0,.81-.43,1,1,0,0,0,.1-.9"/><path class="cls-2" d="M75.28,5.22a1,1,0,0,0-.83-.55L62.38,4.22a1,1,0,0,0-.8.39L32.5,44.08,10.27,25.87a1,1,0,0,0-1.5.4L5.45,35.16a1,1,0,0,0,.26,1.05l27,23.64a1,1,0,0,0,.63.23h.09a1,1,0,0,0,.66-.37L75.17,6.21a1,1,0,0,0,.11-1"/><path class="cls-3" d="M42.57,4.21a1,1,0,0,0-.81-.43L24.84,3.7h0a1,1,0,0,0-.91.61L.64,62.09a1,1,0,0,0,.1.9,1,1,0,0,0,.81.43l16.89.17h0a1,1,0,0,0,.91-.61L42.67,5.11a1,1,0,0,0-.1-.9"/><path class="cls-1" d="M93.88,30.44A4.59,4.59,0,0,1,98.28,28h1.89c1.79,0,3.3.43,3.64,2.87l3.92,26.33a9.65,9.65,0,0,1,.13,3,4.71,4.71,0,0,1-4.47,3.44c-1.75,0-2.87-.62-3.12-2.15l-.8-5.73H86.67l-3.32,5.73a4.09,4.09,0,0,1-4,2.15c-2.18,0-3.39-1.34-2.94-3.44a13.08,13.08,0,0,1,1.42-3Zm3.48,6.12h-.1L89.59,50.36h9.3Z"/><path class="cls-1" d="M135.05,60.4a3.68,3.68,0,0,1-3.91,3.3c-2.08,0-2.95-1.15-2.49-3.3l.24-1.1h-.1a9.5,9.5,0,0,1-8.41,4.4c-5.91,0-10.18-4.25-8.23-13.28,1.44-6.69,6.23-13,13.69-13,3.15,0,5.29,1.29,6.21,3.54h.1l2-9.46A4.15,4.15,0,0,1,138.49,28c2.13,0,3.28,1.19,2.79,3.49Zm-11.89-2.15c4.12,0,6.45-3.63,7.31-7.6.77-3.58.32-7.79-4-7.74-4.5,0-6.59,4.49-7.29,7.74-.89,4.11.22,7.5,4,7.6"/><path class="cls-1" d="M148.51,51.89c-.79,3.68,1.05,6.36,5.17,6.36,5.33,0,6.07-3.44,8.93-3.44a2.26,2.26,0,0,1,2.32,2.72c-.91,4.21-8.16,6.17-12.42,6.17-9.88,0-12.19-6.59-10.88-12.66,1.75-8.12,7.91-13.57,16.3-13.57,8.14,0,11.56,5.69,10.33,11.42-.51,2.39-1.37,3-3.75,3h-16Zm13.27-4c.3-3.2-1.62-5.54-4.76-5.54-3.54,0-6.13,2.15-7.64,5.54Z"/><path class="cls-1" d="M176.93,31.53A4.15,4.15,0,0,1,181.22,28c2.13,0,3.28,1.19,2.78,3.49l-6.18,28.67a4.15,4.15,0,0,1-4.29,3.49c-2.13,0-3.28-1.19-2.79-3.49Z"/><path class="cls-1" d="M208.16,56.34c-.63,2.92,0,3.58-.28,4.68a3.83,3.83,0,0,1-3.77,2.68c-3.05,0-3.66-1.91-3.29-4.06a15.11,15.11,0,0,1-10.57,4.06c-4,0-7.41-2.73-6.46-7.12,1.25-5.78,6.05-7.41,11.61-8l4.41-.48c1.74-.19,3.18-.57,3.61-2.58s-1.46-2.87-3.84-2.87c-5.23,0-6.2,3.82-9,3.82a2.2,2.2,0,0,1-2.43-2.68c.6-2.77,5.33-6.31,12.6-6.31,6.78,0,11,2.15,9.94,7.17Zm-6-5a7.79,7.79,0,0,1-3.29,1.1l-2.65.38c-3,.43-4.84,1.34-5.3,3.44-.34,1.58.88,2.87,3.31,2.87,3.88,0,6.79-2.48,7.34-5.07Z"/><path class="cls-1" d="M217.58,40.95c.45-2.1,1.72-3.49,3.95-3.49s2.9,1.39,2.45,3.49l-.2.91h.1c2.54-2.58,5.5-4.4,9.52-4.4,4.26,0,8.46,2.1,6.94,9.17l-2.93,13.57a4,4,0,0,1-4.29,3.49c-2.76,0-3.19-1.62-2.78-3.49L233,48c.61-2.82-.36-4.83-3.42-4.83A7.14,7.14,0,0,0,223,48.69L220.5,60.21a4,4,0,0,1-4.29,3.49c-2.76,0-3.19-1.62-2.79-3.49Z"/><path class="cls-1" d="M248.65,42.67h-1.21c-2,0-2.65-.77-2.32-2.29s1.32-2.29,3.3-2.29h1.21l.92-4.26a4.15,4.15,0,0,1,4.29-3.49c2.13,0,3.28,1.19,2.79,3.49l-.92,4.26h2.13c2.08,0,3.06.62,2.7,2.29s-1.61,2.29-3.69,2.29h-2.13l-3,14c-.23,1.05.23,1.63,1.49,1.63h1c1.55,0,2.29.86,2,2.34-.43,2-2.41,3.11-5.8,3.11-5.14,0-6.81-2.1-5.93-6.21Z"/><path class="cls-1" d="M277.88,37.46c8.53,0,11.84,5.73,10.26,13.09-1.5,7-6.27,13.14-15.91,13.14S260.47,57.53,262,50.55c1.59-7.36,7.38-13.09,15.9-13.09m-4.54,21.08c4.21,0,6.81-3.73,7.73-8,1-4.54-.18-7.93-4.3-7.93S270,46,269,50.56c-.92,4.25.07,8,4.29,8"/><path class="cls-1" d="M305,37.46c5.38,0,10.35,2.1,9.66,5.3a3.8,3.8,0,0,1-3.61,3.06c-2.76,0-2.17-3.2-6.62-3.2-2.47,0-4.21.67-4.53,2.15s1.17,2,3.24,2.48l2.81.67c3.83.91,8.26,2.58,7.21,7.45-1.23,5.69-7.36,8.31-12.69,8.31-6.4,0-11.12-2.82-10.37-6.26a3.49,3.49,0,0,1,3.49-2.92c3.05,0,2.42,4.3,7.65,4.3,2.52,0,4.35-1.1,4.66-2.53.38-1.77-1.11-2.05-3.49-2.68l-4-1c-3.9-1-6.74-2.68-5.73-7.36,1.23-5.69,7.39-7.79,12.29-7.79"/><path class="cls-2" d="M326.85,56.39h.1l7.72-15.82c.86-1.77,2.12-3.11,4.06-3.11a2.68,2.68,0,0,1,3,3.15,8.15,8.15,0,0,1-1,2.2L327.55,65.7c-2.73,4.78-5.2,7.27-9.66,7.27-3.15,0-4.13-1.53-3.77-3.2A3.64,3.64,0,0,1,318,66.95h.73c.92,0,1.95,0,2.94-2.2l-2.9-20.69a9.78,9.78,0,0,1-.17-3.25,4.39,4.39,0,0,1,4.16-3.35,2.74,2.74,0,0,1,3.07,2.63Z"/><path class="cls-2" d="M364.31,56.34c-.63,2.92,0,3.58-.28,4.68a3.83,3.83,0,0,1-3.77,2.68c-3.05,0-3.66-1.91-3.29-4.06A15.11,15.11,0,0,1,346.4,63.7c-4,0-7.41-2.73-6.46-7.12,1.25-5.78,6.05-7.41,11.61-8l4.41-.48c1.74-.19,3.18-.57,3.61-2.58s-1.46-2.87-3.84-2.87c-5.23,0-6.2,3.82-9,3.82a2.2,2.2,0,0,1-2.43-2.68c.6-2.77,5.33-6.31,12.6-6.31,6.78,0,11,2.15,9.94,7.17Zm-6-5a7.79,7.79,0,0,1-3.29,1.1l-2.65.38c-3,.43-4.84,1.34-5.3,3.44-.34,1.58.88,2.87,3.31,2.87,3.88,0,6.79-2.48,7.34-5.07Z"/><path class="cls-2" d="M375.43,55.57a3.1,3.1,0,0,1,3.13,3.92,5.19,5.19,0,0,1-4.82,3.92,3.1,3.1,0,0,1-3.13-3.92,5.19,5.19,0,0,1,4.82-3.92m7.77-18.3a20.56,20.56,0,0,1-.68,2.25L378.61,50.7a2.29,2.29,0,0,1-2.51,1.77c-1.26,0-1.85-.38-1.75-1.77l.91-11.18a18.68,18.68,0,0,1,.29-2.25l1.2-5.54A4.34,4.34,0,0,1,381.36,28c2.42,0,3.56,1.24,3,3.68Z"/></g></svg>